<svg version="1.1" id="Layer_1" xmlns="http://www.w3.org/2000/svg" xmlns:xlink="http://www.w3.org/1999/xlink" x="0px" y="0px"
	 width="1024" height="1024" viewBox="0 0 1024 1024" preserveAspectRatio="xMidYMid meet" style="background:transparent;" xml:space="preserve">
<defs>
	<linearGradient id="metalBase" x1="18%" y1="82%" x2="82%" y2="18%">
		<stop offset="0%" style="stop-color:#000000;stop-opacity:1" />
		<stop offset="28%" style="stop-color:#111111;stop-opacity:1" />
		<stop offset="50%" style="stop-color:#CFCFCF;stop-opacity:1" />
		<stop offset="64%" style="stop-color:#4A4A4A;stop-opacity:1" />
		<stop offset="84%" style="stop-color:#080808;stop-opacity:1" />
		<stop offset="100%" style="stop-color:#000000;stop-opacity:1" />
	</linearGradient>
	<linearGradient id="metalSheen" x1="26%" y1="86%" x2="75%" y2="14%">
		<stop offset="0%" style="stop-color:#FFFFFF;stop-opacity:0" />
		<stop offset="41%" style="stop-color:#FFFFFF;stop-opacity:0" />
		<stop offset="54%" style="stop-color:#FFFFFF;stop-opacity:0.72" />
		<stop offset="65%" style="stop-color:#FFFFFF;stop-opacity:0.12" />
		<stop offset="100%" style="stop-color:#FFFFFF;stop-opacity:0" />
	</linearGradient>
	<radialGradient id="edgeLight" cx="50%" cy="50%" r="60%">
		<stop offset="60%" style="stop-color:#FFFFFF;stop-opacity:0" />
		<stop offset="100%" style="stop-color:#FFFFFF;stop-opacity:0.28" />
	</radialGradient>
</defs>
<path id="logoShape" fill="url(#metalBase)" fill-rule="evenodd" clip-rule="evenodd" opacity="1.000000" stroke="none" 
	d="
M327.886993,673.978516 
	C288.594910,689.936584 249.655853,705.743958 210.716827,721.551392 
	C210.446823,721.207031 210.176819,720.862671 209.906799,720.518311 
	C263.419800,629.102844 327.635559,546.178772 406.512238,474.915802 
	C404.361450,471.104553 401.069794,469.302246 398.451050,466.827271 
	C374.429169,444.123779 351.565887,420.361359 332.697998,393.087067 
	C323.199738,379.356964 314.323334,365.132477 310.749847,348.541779 
	C305.840515,325.749329 315.842987,313.420532 339.691650,311.798920 
	C362.509277,310.247437 384.247070,316.200134 405.685516,323.340363 
	C446.724243,337.008575 484.855103,356.626007 521.093262,380.008270 
	C526.299683,383.367645 529.832703,383.509918 535.250671,380.219666 
	C571.313110,358.319214 608.719971,339.008759 647.664978,322.655853 
	C687.727966,305.833496 729.199890,293.755859 771.565430,284.499084 
	C773.307129,284.118530 775.048218,283.223694 778.173279,284.935760 
	C707.895935,323.229858 644.914612,370.417908 585.862854,421.974762 
	C586.049683,424.938232 587.598511,425.536987 588.749634,426.395294 
	C619.275269,449.155762 647.416077,474.676575 674.457581,501.383575 
	C697.734436,524.372559 719.169434,549.004761 736.423035,576.973511 
	C742.812195,587.330627 748.720642,597.976868 751.690247,609.935730 
	C756.690796,630.073608 747.795898,641.658081 727.102783,642.399292 
	C710.031189,643.010864 693.682129,639.363098 677.515503,634.522522 
	C639.488708,623.136719 603.903931,606.112122 569.234009,587.091614 
	C538.106567,570.014526 507.521667,552.018738 479.078217,530.644104 
	C476.361053,528.602234 474.612976,528.808838 472.365234,531.241821 
	C455.392853,549.612671 439.006256,568.468384 424.579285,588.934631 
	C422.197540,592.313416 420.212616,596.055115 418.575531,599.857849 
	C415.444244,607.131226 418.461945,611.700867 426.316986,612.792969 
	C436.605743,614.223511 446.571075,612.437256 456.459717,610.104675 
	C470.244965,606.852905 483.819916,602.855225 496.969177,597.517761 
	C498.466827,596.909851 499.944489,596.041870 501.724091,596.505554 
	C497.043549,603.711914 430.430634,633.384949 327.886993,673.978516 
M597.433960,438.087097 
	C593.849243,435.102142 590.029724,432.351959 586.744507,429.067444 
	C583.327393,425.651154 580.809021,426.253967 577.467896,429.253693 
	C555.646606,448.845337 533.974182,468.589783 513.332092,489.435089 
	C512.312134,490.465027 510.938324,491.313446 510.869934,493.518524 
	C512.134521,494.405090 513.571106,495.484985 515.077148,496.457367 
	C539.297058,512.094421 563.855957,527.162903 589.496704,540.388550 
	C613.197327,552.613464 637.119629,564.367004 662.794006,571.987549 
	C670.593750,574.302612 678.542725,576.572021 686.829468,575.146667 
	C696.397217,573.501038 699.316223,568.591919 696.849915,559.071838 
	C693.606384,546.551880 686.557434,536.001160 679.350891,525.590271 
	C656.506592,492.588745 627.760071,465.073029 597.433960,438.087097 
M445.917999,441.380554 
	C471.409119,421.957153 497.503326,403.379791 525.120422,386.135345 
	C519.721802,381.506439 514.314941,378.870544 509.135925,375.933228 
	C473.095551,355.493042 435.827179,337.878540 395.428497,327.767365 
	C380.354614,323.994568 365.016388,321.536591 349.442047,323.958435 
	C338.223419,325.702942 334.822052,331.741913 338.596588,342.554657 
	C343.301453,356.032471 352.048645,367.032562 361.220428,377.617523 
	C381.803528,401.372009 405.124603,422.267517 429.758331,441.690186 
	C438.887238,448.887909 435.791656,448.878784 445.917999,441.380554 
M650.301025,331.746460 
	C670.873840,321.559418 692.197693,313.047882 713.144287,303.662445 
	C703.080139,306.963928 693.324829,311.144196 683.219055,314.144073 
	C679.552368,315.232483 677.258484,318.349945 673.741028,318.881622 
	C667.784973,319.781982 662.104553,321.554688 656.567871,323.741547 
	C610.711731,341.853851 567.304871,364.886749 525.825928,391.316040 
	C465.762054,429.587097 410.778198,474.323456 361.369995,525.710144 
	C348.336670,539.265320 335.358368,552.923462 323.748383,567.786316 
	C321.515778,570.644470 320.579132,573.637634 321.335388,577.073547 
	C321.912994,579.697815 322.219604,582.227600 321.174133,585.125366 
	C323.181000,583.841919 324.402527,582.069641 325.868073,580.529602 
	C341.711761,563.881653 357.491150,547.182068 373.898926,531.068787 
	C418.695404,487.076538 467.194702,447.581146 518.297852,411.213776 
	C522.733276,408.057373 526.933533,404.380402 532.447327,402.970886 
	C533.858704,402.610077 535.115479,402.220673 535.841675,403.832855 
	C536.457214,405.199493 535.442993,405.987946 534.488770,406.701447 
	C531.159241,409.191315 527.802429,411.645020 524.491028,414.158630 
	C507.517090,427.043060 490.471771,439.835541 473.629395,452.889832 
	C467.192383,457.879059 458.837646,460.032410 453.552704,466.602142 
	C450.094666,470.900940 446.709595,475.345947 441.779633,477.963409 
	C434.215210,481.979614 429.498322,488.445923 425.215698,495.507996 
	C419.612518,504.747772 414.233704,514.137146 406.072815,521.572144 
	C403.050720,524.325378 400.135529,527.517517 399.115387,531.767029 
	C396.781158,541.490601 393.941162,551.041565 390.099274,560.294617 
	C389.189636,562.485474 388.226593,564.948608 390.112762,567.477112 
	C393.760529,566.734619 395.894684,564.093506 398.181946,561.801086 
	C415.005890,544.938721 431.649139,527.905273 448.696381,511.255066 
	C492.036285,468.924530 538.177063,429.953735 586.857910,393.947144 
	C594.891479,388.005066 603.133911,382.341888 611.091370,376.301575 
	C615.468018,372.979340 614.753540,370.240570 609.672791,368.072601 
	C604.050537,365.673553 598.700073,365.754730 593.405212,368.869995 
	C588.818542,371.568542 584.272949,374.349213 579.579468,376.850220 
	C574.758240,379.419250 570.599426,383.672272 564.276794,382.858643 
	C590.161316,361.621857 619.938599,346.917603 650.301025,331.746460 
M689.723938,607.625610 
	C684.896973,605.328979 683.840332,600.655396 682.648682,596.156860 
	C680.570129,588.310242 682.186707,586.239685 690.186401,586.032410 
	C695.874329,585.885010 701.601074,585.813293 706.004883,581.321167 
	C709.068176,578.196350 709.381042,575.882935 706.988403,572.055298 
	C703.875793,580.532043 697.201721,583.102966 689.136047,582.844788 
	C682.311523,582.626343 675.604492,581.402039 668.958862,579.714600 
	C652.051270,575.421448 636.708069,567.230713 620.722717,560.640747 
	C618.283936,559.635315 615.645447,557.363342 613.247070,558.568176 
	C607.490112,561.460205 601.580750,564.476013 596.715759,568.601074 
	C591.463135,573.054932 590.401306,574.054138 584.261047,570.996643 
	C560.840881,559.334656 537.976440,546.688538 516.165344,532.197388 
	C513.254333,530.263367 510.335785,528.337708 507.369171,526.491028 
	C504.461121,524.680786 501.925690,522.165039 498.262848,521.803833 
	C558.493652,561.458679 620.762695,596.718445 692.295959,611.839966 
	C692.664185,611.323730 693.032349,610.807495 693.400574,610.291260 
	C692.338501,609.553955 691.276428,608.816650 689.723938,607.625610 
M369.418945,625.925964 
	C372.936798,628.919922 375.861206,631.935608 374.724426,637.374756 
	C374.058044,640.563232 376.290894,642.991516 379.760284,642.650269 
	C386.989960,641.939026 394.555206,641.944275 401.318085,639.674866 
	C423.988434,632.067688 445.622437,621.856384 467.246765,611.659668 
	C458.685150,613.601013 450.234741,615.925476 441.690338,617.828064 
	C434.047852,619.529846 426.277802,620.846741 418.511200,618.465881 
	C411.192596,616.222290 408.492767,611.176697 410.443481,603.820374 
	C411.520538,599.758789 413.542694,596.120239 415.462891,592.426636 
	C418.245209,587.074585 417.301971,585.034912 411.842377,583.085144 
	C407.205200,581.429138 403.439667,583.506958 399.470520,585.226440 
	C384.897858,591.539673 376.425140,603.883484 368.390411,616.633179 
	C366.563507,619.532166 366.372681,622.608215 369.418945,625.925964 
M602.248535,587.282593 
	C599.048462,585.878479 595.850403,584.469727 592.647949,583.070984 
	C581.068787,578.013672 570.232544,571.358276 558.276428,567.107422 
	C556.385681,566.435181 554.247253,565.201111 552.882629,567.388367 
	C551.375977,569.803223 553.344849,571.446594 555.171509,572.676270 
	C558.622253,574.999207 562.049866,577.402893 565.704102,579.369873 
	C590.478821,592.705750 615.685669,605.161377 641.729187,615.848877 
	C654.511658,621.094421 667.502197,625.799866 680.891541,629.278442 
	C687.060486,630.881165 688.976685,629.412109 688.867859,623.082520 
	C688.824158,620.540649 689.965942,618.281860 690.009216,615.006775 
	C659.379822,611.040100 630.787415,600.462219 602.248535,587.282593 
M337.223938,378.297424 
	C356.224792,407.561798 380.382660,432.164215 406.722229,455.723846 
	C406.398682,453.505524 405.150879,452.882965 404.265198,452.010468 
	C384.462463,432.501862 364.153015,413.459076 347.984283,390.619019 
	C346.332306,388.285431 343.964874,386.204926 344.986725,382.412689 
	C348.720154,384.034424 349.739960,387.411316 351.632538,390.009369 
	C352.234192,390.835297 352.872223,391.630402 354.021667,391.533539 
	C355.212769,391.433167 355.835022,390.577301 355.864288,389.523590 
	C355.987457,385.093567 356.698029,380.731873 353.410614,376.715759 
	C346.757446,368.587799 341.057983,359.757629 336.080750,350.500580 
	C333.147522,345.045074 330.916107,339.301392 330.748077,332.982208 
	C330.515625,324.242767 332.913757,321.269012 341.318085,318.552429 
	C347.597137,316.522858 354.054504,316.892548 360.476501,316.564819 
	C337.066711,313.853516 323.745819,316.811371 318.240662,325.713287 
	C319.902557,325.144287 320.492889,322.812836 322.956146,322.976349 
C318.748688,331.573914 319.807220,340.184448 322.257843,348.809845 
	C325.258881,359.372650 331.119324,368.492981 337.223938,378.297424 
z"/>
<use xlink:href="#logoShape" fill="url(#metalSheen)" opacity="1.000000"/>
<use xlink:href="#logoShape" fill="url(#edgeLight)" opacity="0.500000"/>
<use xlink:href="#logoShape" fill="none" stroke="#050505" stroke-width="2.2" opacity="0.850000"/>
</svg>
